<?xml version="1.0" encoding="UTF-8"?>
<svg id="Layer_1" xmlns="http://www.w3.org/2000/svg" version="1.1" viewBox="0 0 16 16">
  <path d="M11,8c0,.1,0,.3-.1.4,0,0-.2.1-.4.1h-5c-.1,0-.3,0-.4-.1,0,0-.1-.2-.1-.4s0-.3.1-.4c0,0,.2-.1.4-.1h5c.1,0,.3,0,.4.1,0,0,.1.2.1.4ZM14.5,8c0,1.3-.4,2.5-1.1,3.6-.7,1.1-1.7,1.9-2.9,2.4-1.2.5-2.5.6-3.8.4-1.3-.3-2.4-.9-3.3-1.8s-1.5-2.1-1.8-3.3c-.3-1.3-.1-2.6.4-3.8.5-1.2,1.3-2.2,2.4-2.9,1.1-.7,2.3-1.1,3.6-1.1,1.7,0,3.4.7,4.6,1.9,1.2,1.2,1.9,2.9,1.9,4.6ZM13.5,8c0-1.1-.3-2.2-.9-3.1-.6-.9-1.5-1.6-2.5-2-1-.4-2.1-.5-3.2-.3-1.1.2-2,.7-2.8,1.5-.8.8-1.3,1.7-1.5,2.8-.2,1.1-.1,2.2.3,3.2.4,1,1.1,1.9,2,2.5.9.6,2,.9,3.1.9,1.5,0,2.9-.6,3.9-1.6,1-1,1.6-2.4,1.6-3.9Z"/>
</svg>